<svg xmlns="http://www.w3.org/2000/svg" viewBox="0 0 800 384" width="800" height="384">
  <defs>
    <linearGradient id="cbg" x1="0" y1="0" x2="1" y2="1">
      <stop offset="0%" stop-color="#0d1629"/>
      <stop offset="55%" stop-color="#1a1408"/>
      <stop offset="100%" stop-color="#2a1a00"/>
    </linearGradient>
    <radialGradient id="cglow" cx="50%" cy="40%" r="45%">
      <stop offset="0%" stop-color="#fbbc00" stop-opacity="0.16"/>
      <stop offset="100%" stop-color="#fbbc00" stop-opacity="0"/>
    </radialGradient>
    <linearGradient id="cbar" x1="0" y1="0" x2="1" y2="0">
      <stop offset="0%" stop-color="#fbbc00"/>
      <stop offset="100%" stop-color="#f59e0b"/>
    </linearGradient>
    <filter id="cglowf">
      <feGaussianBlur stdDeviation="4" result="blur"/>
      <feMerge><feMergeNode in="blur"/><feMergeNode in="SourceGraphic"/></feMerge>
    </filter>
    <pattern id="cdots" x="0" y="0" width="28" height="28" patternUnits="userSpaceOnUse">
      <circle cx="2" cy="2" r="1" fill="#fbbc00" fill-opacity="0.07"/>
    </pattern>
  </defs>

  <rect width="800" height="384" fill="url(#cbg)"/>
  <rect width="800" height="384" fill="url(#cdots)"/>
  <rect width="800" height="384" fill="url(#cglow)"/>

  <!-- Header -->
  <text x="48" y="58" font-family="ui-monospace, 'JetBrains Mono', monospace" font-size="13" font-weight="700" letter-spacing="3" fill="#fbbc00">STT_BENCHMARK // 廣東話</text>
  <text x="48" y="80" font-family="ui-monospace, 'JetBrains Mono', monospace" font-size="10" letter-spacing="2" fill="#9c8f78">5 PROVIDERS · LLM TRANSLATION · TTS ROUND-TRIP</text>

  <!-- Waveform -->
  <g transform="translate(48,128)" filter="url(#cglowf)">
    <g fill="#fbbc00">
      <rect x="0"   y="20" width="5" height="24" rx="2" opacity="0.5"/>
      <rect x="11"  y="12" width="5" height="40" rx="2" opacity="0.7"/>
      <rect x="22"  y="2"  width="5" height="60" rx="2"/>
      <rect x="33"  y="16" width="5" height="32" rx="2" opacity="0.8"/>
      <rect x="44"  y="8"  width="5" height="48" rx="2" opacity="0.9"/>
      <rect x="55"  y="22" width="5" height="20" rx="2" opacity="0.5"/>
      <rect x="66"  y="4"  width="5" height="56" rx="2"/>
      <rect x="77"  y="14" width="5" height="36" rx="2" opacity="0.8"/>
      <rect x="88"  y="24" width="5" height="16" rx="2" opacity="0.4"/>
      <rect x="99"  y="10" width="5" height="44" rx="2" opacity="0.85"/>
      <rect x="110" y="18" width="5" height="28" rx="2" opacity="0.6"/>
      <rect x="121" y="26" width="5" height="12" rx="2" opacity="0.35"/>
    </g>
  </g>
  <text x="48" y="216" font-family="ui-monospace, 'JetBrains Mono', monospace" font-size="9" letter-spacing="2" fill="#6a7a98">INPUT_AUDIO // yue-Hant-HK</text>

  <!-- Provider comparison bars -->
  <g font-family="ui-monospace, 'JetBrains Mono', monospace" font-size="10">
    <rect x="320" y="112" width="432" height="232" rx="6" fill="#0a1326" stroke="#fbbc00" stroke-opacity="0.22"/>
    <text x="344" y="140" font-size="9" letter-spacing="2" fill="#9c8f78">SAMPLE_RUN // RELATIVE_SCORE</text>

    <text x="344" y="170" fill="#d9e2ff">WHISPER</text>
    <rect x="452" y="161" width="248" height="9" rx="1" fill="url(#cbar)"/>
    <text x="708" y="170" fill="#fbbc00">0.91</text>

    <text x="344" y="200" fill="#d9e2ff">GOOGLE</text>
    <rect x="452" y="191" width="230" height="9" rx="1" fill="url(#cbar)" opacity="0.85"/>
    <text x="708" y="200" fill="#fbbc00">0.86</text>

    <text x="344" y="230" fill="#d9e2ff">TENCENT</text>
    <rect x="452" y="221" width="221" height="9" rx="1" fill="url(#cbar)" opacity="0.75"/>
    <text x="708" y="230" fill="#fbbc00">0.83</text>

    <text x="344" y="260" fill="#d9e2ff">11LABS</text>
    <rect x="452" y="251" width="197" height="9" rx="1" fill="url(#cbar)" opacity="0.6"/>
    <text x="708" y="260" fill="#fbbc00">0.74</text>

    <text x="344" y="290" fill="#d9e2ff">F-WHISPER</text>
    <rect x="452" y="281" width="186" height="9" rx="1" fill="url(#cbar)" opacity="0.5"/>
    <text x="708" y="290" fill="#fbbc00">0.70</text>

    <text x="344" y="324" font-size="9" letter-spacing="2" fill="#6a7a98">SIDE_BY_SIDE · SAME_CLIP · BLIND_SCORED</text>
  </g>

  <!-- Footer -->
  <text x="48" y="352" font-family="ui-monospace, 'JetBrains Mono', monospace" font-size="9" letter-spacing="2" fill="#6a7a98">STT → LLM_TRANSLATE → VOXCPM_TTS</text>
</svg>
